<?xml version="1.0" encoding="utf-8"?>
<!-- Generator: Adobe Illustrator 21.1.0, SVG Export Plug-In . SVG Version: 6.00 Build 0)  -->
<svg version="1.1" id="Calque_1" xmlns="http://www.w3.org/2000/svg" xmlns:xlink="http://www.w3.org/1999/xlink" x="0px" y="0px"
	 viewBox="0 0 64 64" style="enable-background:new 0 0 64 64;" xml:space="preserve">
<style type="text/css">
	.st0{fill:#1D1D1B;}
</style>
<path class="st0" d="M-12.5,1.6c-0.8-3.2-1.8-5.7-3.3-7.8c-4.8-7.1-11.4-10.6-20-10.7c-2.4,0-17.1,0-19.9,0l-1,0l-0.5-1
	c-0.3-0.6-0.1-1.3,0.4-1.8l0.2-0.2c1.7-1.6,6.7-6.5,8.6-8.3c-0.8-0.8-1.5-1.4-2.1-2c-1-0.9-1.9-1.7-3-2.9c-0.1,0.1-0.3,0.2-0.5,0.4
	c-3.3,3.2-16.9,16.6-20.8,20.4C-71-8.7-59.3,3.8-53.9,9.2l1.9-2c1.2-1.2,2.3-2.3,3.6-3.6c-2.1-2.2-7.5-8.1-8.7-9.3l-0.7-0.7l0.8-1.9
	l1.1-0.1c2.2,0,17.4,0,19.7,0c3.4,0,6.6,0.9,9.3,2.9c3.2,2.3,5.3,5.5,6,9.3c0.6,3.3,0.3,6.3-1,8.9c-1.4,3-3.4,5.3-6.2,6.9
	c-1.7,1-3.6,1.7-6,2c0,2.6,0,5.2,0,7.7l0,1.1c2.4-0.2,4.8-0.9,6-1.3c1.6-0.6,3.7-1.5,5.6-2.7c3.7-2.4,6.4-5.5,8.1-9.3
	c0.9-2,1.8-4.3,2.1-6.5C-11.7,7.3-11.8,4.3-12.5,1.6z"/>
<path class="st0" d="M37.7,6.2C23.5,6.2,11.9,17.8,11.9,32c0,3.2,0.7,6.4,1.8,9.4c-0.1,0.1-0.2,0.3-0.2,0.3l-0.6,0.7
	c-0.4,0.4-0.9,0.5-1.5,0.3l-0.2-0.1c-1.7-0.7-7-2.8-8.9-3.5c-0.3,0.8-0.5,1.5-0.8,2.2c-0.3,1-0.7,1.9-1.1,3.2
	c0.1,0.1,0.2,0.1,0.5,0.2c3.4,1.3,17.7,6.9,21.7,8.4c1.6-3.7,6.8-16.4,9-22.2l-2.1-0.8c-1.2-0.5-2.4-0.9-3.8-1.4
	c-0.9,2.2-3.6,8.7-3.9,9.4c-0.3,0.7-1,0.8-1.9,0.8c-0.1,0-0.2,0-0.4,0c-0.9-2.2-1.3-4.6-1.3-7c0-10.7,8.7-19.4,19.4-19.4
	S57.1,21.3,57.1,32c0,10.7-8.7,19.4-19.4,19.4v6.4c14.2,0,25.8-11.6,25.8-25.8C63.5,17.8,51.9,6.2,37.7,6.2z"/>
</svg>
