<?xml version="1.0" encoding="utf-8"?>
<!-- Generator: Adobe Illustrator 21.1.0, SVG Export Plug-In . SVG Version: 6.00 Build 0)  -->
<svg version="1.1" baseProfile="basic" id="Calque_1"
	 xmlns="http://www.w3.org/2000/svg" xmlns:xlink="http://www.w3.org/1999/xlink" x="0px" y="0px" viewBox="0 0 38.1 32.6"
	 xml:space="preserve">
<style type="text/css">
	.st0{fill:#FFFFFF;}
</style>
<g>
	
		<image style="overflow:visible;opacity:0.16;" width="246" height="246" xlink:href="57517FEF.png"  transform="matrix(0.24 0 0 0.24 -13.44 -12.5945)">
	</image>
	<g>
		<g>
			<path class="st0" d="M12.2,12.9c-1.2,0-2.3,0-3.4,0c0,1.2,0,2.3,0,3.4c1.1,0,2.3,0,3.4,0C12.2,15.1,12.2,14,12.2,12.9z"/>
			<path class="st0" d="M14.5,16.3c1.1,0,2.3,0,3.4,0c0-1.2,0-2.3,0-3.4c-1.2,0-2.3,0-3.4,0C14.5,14,14.5,15.2,14.5,16.3z"/>
			<path class="st0" d="M23.5,12.9c-1.2,0-2.3,0-3.4,0c0,1.2,0,2.3,0,3.4c1.1,0,2.3,0,3.4,0C23.5,15.1,23.5,14,23.5,12.9z"/>
			<path class="st0" d="M8.8,21.4c0,0,0.1,0.1,0.2,0.1c1.1,0,2.2,0,3.3,0c0-1.2,0-2.3,0-3.4c-1.1,0-2.3,0-3.4,0
				C8.8,19.2,8.8,20.3,8.8,21.4z"/>
			<path class="st0" d="M14.5,21.5c1.2,0,2.3,0,3.4,0c0-1.2,0-2.3,0-3.4c-1.1,0-2.3,0-3.4,0C14.5,19.3,14.5,20.4,14.5,21.5z"/>
			<path class="st0" d="M20.1,21.5c1.2,0,2.3,0,3.4,0c0-1.2,0-2.3,0-3.4c-1.1,0-2.3,0-3.4,0C20.1,19.3,20.1,20.4,20.1,21.5z"/>
			<path class="st0" d="M9.3,7.7c0.4,0,0.8-0.3,0.8-0.8c0-0.6,0-1.2,0-1.7c0-0.6,0-1.2,0-1.7S9.7,2.6,9.3,2.6
				C8.8,2.5,8.4,2.9,8.4,3.4c0,1.2,0,2.4,0,3.6C8.4,7.4,8.8,7.8,9.3,7.7z"/>
			<path class="st0" d="M23.3,7.7c0.4,0,0.8-0.3,0.8-0.8c0-0.6,0-1.2,0-1.7c0-0.6,0-1.2,0-1.7s-0.4-0.9-0.8-0.9
				c-0.5-0.1-0.9,0.3-0.9,0.8c0,1.2,0,2.4,0,3.6C22.4,7.4,22.8,7.8,23.3,7.7z"/>
		</g>
		<path class="st0" d="M25.3,5.9c0,0-0.2,0-0.3,0c0,0.2,0,0.5,0,0.7c0,1.1-0.8,1.8-1.7,1.8c-1.1,0-1.9-0.7-1.9-1.6c0-0.3,0-0.6,0-1
			c-3.1,0-7.4,0-10.5,0c0,0.2,0,0.5,0,0.7c0,1.1-0.8,1.8-1.7,1.8c-1.1,0-1.9-0.7-1.9-1.6c0-0.3,0-0.6,0-1c-0.2,0-0.3,0-0.4,0
			c-1.3,0-2.3,0.7-2.3,2c0,0.3,0,0.7,0,1c0,1.8,0,3.6,0,5.4c0,0.1,0,0.1,0,0.2c0,2.8,0,5.7,0,8.5c0,1.2,0.8,2,2,2c2.8,0,5.6,0,8.5,0
			c0.1,0,0.2,0,0.3,0c0.2,0,0.4,0,0.6,0c0.2,0,0.4,0,0.6,0c0.1,0,0.2,0,0.3,0c2.8,0,5.6,0,8.5,0c1.2,0,2-0.8,2-2c0-2.8,0-5.7,0-8.5
			c0-0.1,0-0.1,0-0.2c0-1.8,0-3.6,0-5.4c0-0.3,0-0.7,0-1C27.6,6.7,26.6,5.9,25.3,5.9z M26,11.3c0,3.9,0,7.7,0,11.6
			c-0.1,0.4-0.2,0.5-0.6,0.5c-2.8,0-5.6,0-8.3,0c-0.1,0-0.2,0-0.3,0c-0.2,0-0.3,0-0.5,0c-0.2,0-0.3,0-0.5,0c-0.1,0-0.2,0-0.3,0
			c-2.8,0-5.6,0-8.3,0c-0.4,0-0.4,0-0.4-0.5c0-3.9,0-7.7,0-11.6c0-0.1,0-0.2,0-0.2h0.1c0,0,0,0,0.1,0c3.1,0,6.3,0,9.4,0
			c3.1,0,6.3,0,9.4,0c0,0,0,0,0.1,0H26C26,11.2,26,11.3,26,11.3z"/>
	</g>
</g>
</svg>
