<?xml version="1.0" encoding="utf-8"?>
<!-- Generator: Adobe Illustrator 21.1.0, SVG Export Plug-In . SVG Version: 6.00 Build 0)  -->
<svg version="1.1" baseProfile="basic" id="Calque_1"
	 xmlns="http://www.w3.org/2000/svg" xmlns:xlink="http://www.w3.org/1999/xlink" x="0px" y="0px" viewBox="0 0 38.1 32.6"
	 xml:space="preserve">
<style type="text/css">
	.st0{opacity:0.3;}
	.st1{fill:#FFFFFF;}
</style>
<g class="st0">
	
		<image style="overflow:visible;opacity:0.16;" width="246" height="242" xlink:href="68DE6B97.png"  transform="matrix(0.24 0 0 0.24 -13.2914 -12.2095)">
	</image>
	<g>
		<path class="st1" d="M16.9,3.3L20,8.9c0.1,0.2,0.3,0.4,0.6,0.4l6.3,1.2c0.6,0.1,0.9,0.9,0.4,1.4l-4.4,4.7
			c-0.2,0.2-0.2,0.4-0.2,0.7l0.8,6.4c0.1,0.6-0.6,1.1-1.1,0.8l-5.9-2.7c-0.2-0.1-0.5-0.1-0.7,0l-5.9,2.7c-0.6,0.3-1.2-0.2-1.1-0.8
			l0.9-6.3c0-0.2,0-0.5-0.2-0.7L5,12c-0.4-0.5-0.2-1.2,0.4-1.4l6.3-1.2c0.2,0,0.4-0.2,0.6-0.4l3.1-5.6C15.8,2.8,16.6,2.8,16.9,3.3z"
			/>
	</g>
</g>
<g>
	
		<image style="overflow:visible;opacity:0.16;" width="246" height="242" xlink:href="68DE6B95.png"  transform="matrix(0.24 0 0 0.24 -13.2914 -12.2095)">
	</image>
	<g>
		<path class="st1" d="M16.2,4.1l2.9,5.3c0.3,0.6,0.8,0.9,1.4,0.9l5.9,1.1l-4.2,4.5c-0.5,0.5-0.5,1-0.5,1.4v0.1l0,0.1l0.8,6L17,20.9
			c-0.2-0.1-0.5-0.2-0.8-0.2c-0.3,0-0.6,0.1-0.8,0.2l-5.5,2.5l0.8-5.9l0-0.1v-0.1c0-0.3,0-0.9-0.5-1.4l-4.3-4.5l5.9-1.1
			c0.5-0.1,0.9-0.4,1.2-0.7l0.1-0.1l0.1-0.1L16.2,4.1 M16.2,3c-0.3,0-0.6,0.1-0.8,0.5L12.3,9c-0.2,0.2-0.4,0.4-0.6,0.4l-6.3,1.2
			C4.8,10.8,4.6,11.5,5,12l4.5,4.7c0.2,0.2,0.2,0.5,0.2,0.7l-0.9,6.3c-0.1,0.5,0.3,0.9,0.7,0.9c0.1,0,0.2,0,0.4-0.1l5.9-2.7
			c0.1,0,0.2-0.1,0.4-0.1s0.3,0,0.3,0.1l5.9,2.7c0.1,0.1,0.2,0.1,0.3,0.1c0.4,0,0.9-0.4,0.8-0.9l-0.8-6.4c0-0.3,0-0.5,0.2-0.7
			l4.4-4.7c0.5-0.5,0.2-1.3-0.4-1.4l-6.3-1.2c-0.3,0-0.5-0.2-0.6-0.4l-3.1-5.6C16.8,3.1,16.5,3,16.2,3L16.2,3z"/>
	</g>
</g>
</svg>
