<?xml version="1.0" encoding="utf-8"?>
<!-- Generator: Adobe Illustrator 21.1.0, SVG Export Plug-In . SVG Version: 6.00 Build 0)  -->
<svg version="1.1" baseProfile="basic" id="Calque_1"
	 xmlns="http://www.w3.org/2000/svg" xmlns:xlink="http://www.w3.org/1999/xlink" x="0px" y="0px" viewBox="0 0 38.1 32.6"
	 xml:space="preserve">
<style type="text/css">
	.st0{fill:#FFFFFF;}
</style>
<g>
	
		<image style="overflow:visible;opacity:0.16;" width="246" height="242" xlink:href="BF7A21FF.png"  transform="matrix(0.24 0 0 0.24 -13.2323 -12.2095)">
	</image>
	<g>
		<path class="st0" d="M16.9,3.3L20,8.9c0.1,0.2,0.3,0.4,0.6,0.4l6.3,1.2c0.6,0.1,0.9,0.9,0.4,1.4l-4.4,4.7
			c-0.2,0.2-0.2,0.4-0.2,0.7l0.8,6.4c0.1,0.6-0.6,1.1-1.1,0.8l-5.9-2.7c-0.2-0.1-0.5-0.1-0.7,0l-5.9,2.7c-0.6,0.3-1.2-0.2-1.1-0.8
			l0.9-6.3c0-0.2,0-0.5-0.2-0.7L5,12c-0.4-0.5-0.2-1.2,0.4-1.4l6.3-1.2c0.2,0,0.4-0.2,0.6-0.4l3.1-5.6C15.8,2.8,16.6,2.8,16.9,3.3z"
			/>
	</g>
</g>
</svg>
