<?xml version="1.0" encoding="utf-8"?>
<!-- Generator: Adobe Illustrator 21.1.0, SVG Export Plug-In . SVG Version: 6.00 Build 0)  -->
<svg version="1.1" baseProfile="basic" id="Calque_1"
	 xmlns="http://www.w3.org/2000/svg" xmlns:xlink="http://www.w3.org/1999/xlink" x="0px" y="0px" viewBox="0 0 38.1 32.6"
	 xml:space="preserve">
<style type="text/css">
	.st0{fill:#FFFFFF;}
</style>
<g>
	
		<image style="overflow:visible;opacity:0.16;" width="246" height="246" xlink:href="B2ADB036.png"  transform="matrix(0.24 0 0 0.24 -13.68 -12.24)">
	</image>
	<g>
		<path class="st0" d="M20.4,16.8c1,0,1.9,0,2.9,0c0.2-1.2,0.3-2.3,0.5-3.6c-1,0-1.9,0-2.8,0c-0.5,0-0.7-0.1-0.6-0.6
			c0-0.5,0-1.1,0-1.6c0-1.1,0.4-1.6,1.6-1.6c0.6,0,1.2,0,1.9,0c0-1.1,0-2.1,0-3.2c-1.4-0.1-2.8-0.3-4.2,0.1
			c-1.7,0.4-2.8,1.9-2.9,3.9c0,0.9,0,1.7,0,2.6c0,0.4-0.1,0.5-0.5,0.5c-0.7,0-1.4,0-2.1,0c-0.3,0-0.5,0.1-0.5,0.4c0,0.9,0,1.8,0,2.7
			c0,0.3,0.1,0.5,0.5,0.5c0.8,0,1.7,0,2.5,0c0,0.2,0,0.4,0,0.5c0,2.6,0,5.1,0,7.7c0,0.4-0.1,0.6-0.5,0.6c-3.4,0-6.9,0-10.3,0
			c-1,0-1.3-0.3-1.3-1.3c0-6.7,0-13.4,0-20.1c0-1,0.3-1.3,1.3-1.3c6.7,0,13.5,0,20.2,0c1,0,1.3,0.3,1.3,1.3c0,6.7,0,13.5,0,20.2
			c0,1-0.3,1.3-1.3,1.3c-1.7,0-3.4,0-5.1,0c-0.3,0-0.5-0.1-0.5-0.5c0-2.6,0-5.3,0-7.9C20.4,17.1,20.4,17,20.4,16.8z"/>
	</g>
</g>
</svg>
