<?xml version="1.0" encoding="utf-8"?>
<!-- Generator: Adobe Illustrator 21.1.0, SVG Export Plug-In . SVG Version: 6.00 Build 0)  -->
<svg version="1.1" baseProfile="basic" id="Calque_1"
	 xmlns="http://www.w3.org/2000/svg" xmlns:xlink="http://www.w3.org/1999/xlink" x="0px" y="0px" viewBox="0 0 38.1 32.6"
	 xml:space="preserve">
<style type="text/css">
	.st0{fill:#FFFFFF;}
</style>
<g>
	
		<image style="overflow:visible;opacity:0.16;" width="246" height="246" xlink:href="4E46489.png"  transform="matrix(0.24 0 0 0.24 -13.349 -12.5519)">
	</image>
	<g>
		<path class="st0" d="M16.1,2.5C9.9,2.5,4.8,7.6,4.8,13.9s5.1,11.4,11.4,11.4s11.4-5.1,11.4-11.4S22.4,2.5,16.1,2.5z M26.3,13.9
			c0,5.6-4.6,10.1-10.1,10.1S6,19.5,6,13.9S10.5,3.7,16.1,3.7S26.3,8.3,26.3,13.9z"/>
		<g>
			<g>
				<path class="st0" d="M12.6,21.6v-1l2-0.5v-7.5l-2.3-0.5v-1c1.6-0.1,5.6,0,5.6,0v9l1.9,0.5v1H12.6z"/>
			</g>
			<g>
				<path class="st0" d="M16.1,9.7c-1.2,0-2.2-1-2.2-2.2s1.1-2.2,2.2-2.2c1.2,0,2.2,1.1,2.2,2.2C18.4,8.7,17.3,9.7,16.1,9.7z"/>
			</g>
		</g>
	</g>
</g>
</svg>
