<?xml version="1.0" encoding="utf-8"?>
<!-- Generator: Adobe Illustrator 21.1.0, SVG Export Plug-In . SVG Version: 6.00 Build 0)  -->
<svg version="1.1" baseProfile="basic" id="Calque_1"
	 xmlns="http://www.w3.org/2000/svg" xmlns:xlink="http://www.w3.org/1999/xlink" x="0px" y="0px" viewBox="0 0 38.1 32.6"
	 xml:space="preserve">
<style type="text/css">
	.st0{fill:#FFFFFF;}
</style>
<g>
	
		<image style="overflow:visible;opacity:0.16;" width="246" height="246" xlink:href="AF06B5E9.png"  transform="matrix(0.24 0 0 0.24 -13.6515 -12.2579)">
	</image>
	<g>
		<path class="st0" d="M4.5,14.6c0-0.3,0-0.7,0-1c0.1-0.5,0.1-1,0.2-1.5C5.9,6,11.8,1.9,17.9,2.9C24,4,28.1,9.8,27.2,16
			c-1,6.1-6.7,10.4-12.8,9.5c-4.6-0.7-8.3-4-9.4-8.5C4.7,16.2,4.6,15.4,4.5,14.6z M15.9,23.8c5.2,0,9.5-4.3,9.6-9.5
			c0.1-5.1-4.1-9.7-9.5-9.7c-5.4,0-9.6,4.2-9.7,9.5C6.3,19,10.3,23.7,15.9,23.8z"/>
		<path class="st0" d="M21.6,11.6c0,2.1,0,4,0,6c0,0.3-0.2,0.3-0.4,0.3c-1.9,0-3.9,0-5.8,0c-1.5,0-3.1,0-4.6,0
			c-0.4,0-0.5-0.1-0.5-0.5c0-1.9,0-3.8,0-5.8c0.2,0.1,0.3,0.2,0.4,0.3c1.6,1.3,3.3,2.5,4.9,3.8c0.3,0.2,0.5,0.2,0.7,0
			c1.6-1.3,3.2-2.5,4.9-3.8C21.3,11.9,21.4,11.8,21.6,11.6z"/>
		<path class="st0" d="M21.5,10.4c-1.9,1.4-3.7,2.8-5.5,4.2c-1.8-1.4-3.7-2.8-5.5-4.2C14.1,10.4,17.7,10.4,21.5,10.4z"/>
	</g>
</g>
</svg>
