<?xml version="1.0" encoding="utf-8"?>
<!-- Generator: Adobe Illustrator 21.1.0, SVG Export Plug-In . SVG Version: 6.00 Build 0)  -->
<svg version="1.1" baseProfile="basic" id="Calque_1"
	 xmlns="http://www.w3.org/2000/svg" xmlns:xlink="http://www.w3.org/1999/xlink" x="0px" y="0px" viewBox="0 0 38.1 32.6"
	 xml:space="preserve">
<style type="text/css">
	.st0{fill:#FFFFFF;}
</style>
<g>
	
		<image style="overflow:visible;opacity:0.16;" width="248" height="246" xlink:href="225722EC.png"  transform="matrix(0.24 0 0 0.24 -13.3843 -12.6895)">
	</image>
	<g>
		<path class="st0" d="M14.5,2.4c1.2,0,2.4,0,3.6,0c0.2,0.1,0.4,0.3,0.4,0.6c0.1,0.8,0.3,1.7,0.4,2.5c0,0.1,0,0.1,0.1,0.2
			c0.4,0.1,0.7,0.3,1.1,0.5c0.1,0,0.1,0,0.2,0c0.7-0.5,1.3-1,2-1.5c0.3-0.2,0.5-0.2,0.8,0C24,5.4,24.8,6.1,25.5,7
			c0.2,0.3,0.3,0.6,0,0.8C25,8.4,24.6,9,24.1,9.7C24,9.8,24,9.9,24.1,10c0.2,0.4,0.3,0.8,0.5,1.1c0,0.1,0.1,0.2,0.2,0.2l2,0.1
			c0.3,0,0.7,0.1,0.9,0.4c0,1.2,0,2.4,0,3.6c-0.1,0.2-0.3,0.4-0.6,0.4c-0.8,0.1-1.6,0.2-2.4,0.4c-0.1,0-0.2,0.2-0.2,0.2L24,17.5
			c-0.1,0.1-0.1,0.2,0,0.3c0.5,0.6,1,1.2,1.4,1.9c0.3,0.4,0.3,0.5,0,0.9c-0.7,0.8-1.4,1.6-2.3,2.3c-0.5,0.4-0.7,0.4-1.1,0l0,0
			c-0.6-0.5-1.2-0.9-1.8-1.4c0,0-0.1,0-0.2,0c-0.4,0.1-0.7,0.3-1.1,0.5c-0.1,0-0.2,0.1-0.2,0.2c-0.1,0.8-0.2,1.6-0.4,2.4
			c0,0.3-0.1,0.5-0.4,0.6c-1.2,0-2.4,0-3.6,0c-0.3-0.1-0.4-0.3-0.4-0.6c-0.1-0.8-0.2-1.6-0.4-2.4c0-0.1,0-0.1-0.1-0.2
			c-0.4-0.1-0.7-0.3-1.1-0.5c-0.1,0-0.1,0-0.2,0c-0.1,0-0.1,0.1-0.2,0.1c-0.6,0.5-1.2,0.9-1.8,1.4c-0.3,0.2-0.5,0.2-0.8-0.1
			c-0.9-0.7-1.7-1.4-2.4-2.3c-0.2-0.3-0.3-0.6,0-0.9c0.5-0.6,0.9-1.2,1.4-1.9c0.1-0.1,0.1-0.2,0-0.3c-0.2-0.4-0.3-0.8-0.5-1.1
			c0-0.1-0.1-0.2-0.2-0.2c-0.7-0.1-1.4-0.2-2.1-0.3c-0.4,0-0.7-0.1-0.9-0.5c0-1.2,0-2.4,0-3.6c0.1-0.2,0.3-0.4,0.6-0.4
			c1.1-0.1,1.9-0.2,2.8-0.3c0.1,0,0.1-0.1,0.2-0.1l0.4-1.1c0,0,0.1-0.2,0-0.3C8.1,9,7.6,8.4,7.2,7.7C6.9,7.4,6.8,7.3,7.1,6.9
			c0.3-0.4,0.7-0.8,1-1.1c0.5-0.5,1-1,1.5-1.4c0.3-0.1,0.4-0.1,0.6,0c0.1,0.1,0.2,0.1,0.3,0.2c0.6,0.5,1.2,0.9,1.8,1.4
			c0,0,0.1,0,0.2,0c0.3-0.1,0.7-0.3,1-0.4c0.1,0,0.1-0.1,0.2-0.2c0.1-0.9,0.2-1.7,0.4-2.4C14.1,2.7,14.2,2.5,14.5,2.4z M16.3,9.1
			c-2.6-0.1-4.8,2.1-4.8,4.6s2.2,4.7,4.7,4.6c2.6,0,4.6-2.1,4.6-4.6C21,11.1,18.8,9,16.3,9.1z"/>
	</g>
</g>
</svg>
