<?xml version="1.0" encoding="utf-8"?>
<!-- Generator: Adobe Illustrator 21.1.0, SVG Export Plug-In . SVG Version: 6.00 Build 0)  -->
<svg version="1.1" baseProfile="basic" id="Calque_1"
	 xmlns="http://www.w3.org/2000/svg" xmlns:xlink="http://www.w3.org/1999/xlink" x="0px" y="0px" viewBox="0 0 38.1 32.6"
	 xml:space="preserve">
<style type="text/css">
	.st0{fill:#FFFFFF;}
</style>
<g>
	
		<image style="overflow:visible;opacity:0.16;" width="267" height="246" xlink:href="3E175035.png"  transform="matrix(0.24 0 0 0.24 -15.84 -12.72)">
	</image>
	<g>
		<path class="st0" d="M18.7,2.5c-6.3,0-11.3,5.1-11.3,11.3c0,0.5,0,1,0.1,1.5c0.1,0.5,0.2,0.9,0.3,1.4c0.1,0.2,0.1,0.4,0.2,0.7
			c0,0.1,0.1,0.2,0.1,0.3c0,0.1,0.1,0.2,0.1,0.3c0,0,0,0.1,0,0.1c-0.1,0.1-0.3,0.3-0.4,0.4c-0.1,0.1-0.3,0.2-0.5,0.1
			c0,0-0.1,0-0.1,0c-0.3-0.1-0.5-0.1-0.8-0.2c-0.6-0.2-1.2-0.4-1.8-0.7c-0.5-0.2-1-0.4-1.5-0.6c-0.1,0.4-0.2,0.7-0.3,1
			c-0.2,0.4-0.3,0.8-0.5,1.4c0,0,0.1,0.1,0.2,0.1c1.5,0.6,7.8,3,9.6,3.7c0.7-1.6,3-7.2,4-9.7l-1-0.4c-0.5-0.2-1.1-0.4-1.7-0.6
			c-0.4,1-1.6,3.8-1.7,4.1c-0.1,0.3-0.5,0.3-0.8,0.3c-0.1,0-0.1,0-0.2,0c-0.4-1-0.6-2-0.6-3.1c0-4.6,3.8-8.4,8.5-8.4
			s8.5,3.8,8.5,8.5s-3.8,8.5-8.5,8.5v2.8C25,25.1,30,20,30,13.8S25,2.5,18.7,2.5z"/>
	</g>
</g>
</svg>
