<?xml version="1.0" encoding="utf-8"?>
<!-- Generator: Adobe Illustrator 21.1.0, SVG Export Plug-In . SVG Version: 6.00 Build 0)  -->
<svg version="1.1" baseProfile="basic" id="Calque_1"
	 xmlns="http://www.w3.org/2000/svg" xmlns:xlink="http://www.w3.org/1999/xlink" x="0px" y="0px" viewBox="0 0 38.1 32.6"
	 xml:space="preserve">
<style type="text/css">
	.st0{fill:#FFFFFF;}
</style>
<g>
	
		<image style="overflow:visible;opacity:0.16;" width="246" height="246" xlink:href="4F67BB5E.png"  transform="matrix(0.24 0 0 0.24 -13.1613 -12.6895)">
	</image>
	<g>
		<path class="st0" d="M27.1,14.9c-0.3-1.1-0.7-2-1.2-2.8c-1.7-2.5-4.1-3.7-7.1-3.8c-0.9,0-6.1,0-7.1,0h-0.4l-0.2-0.4
			c-0.1-0.2,0-0.5,0.2-0.7l0.1-0.1c0.6-0.6,3.1-3,3.1-3l-2-1.7c0,0-0.1,0.1-0.2,0.2c-1.2,1.1-6,5.8-7.4,7.2c1.2,1.3,5.4,5.8,7.3,7.7
			c0,0,1.5-1.5,2-2c-0.5-0.5-1-1-1.5-1.5c-0.3-0.3-0.6-0.7-0.9-1c-0.1-0.1-0.2-0.3-0.3-0.4c-0.1-0.1-0.2-0.2-0.3-0.4
			c-0.1-0.1-0.1-0.1-0.1-0.2c0-0.1,0-0.2,0-0.3c0,0,0.1-0.4,0.1-0.4c0,0,0.4,0,0.4,0c0.8,0,6.2,0,7,0c1.2,0,2.4,0.3,3.4,1
			c1.2,0.8,1.9,2,2.2,3.3c0.2,1.2,0.1,2.3-0.3,3.2c-0.5,1.1-1.2,1.9-2.2,2.5c-0.6,0.4-1.3,0.6-2.2,0.7c0,0.9,0,1.9,0,2.8v0.4
			c0.9-0.1,1.7-0.3,2.2-0.5c0.6-0.2,1.3-0.6,2-1c1.3-0.9,2.3-2,3-3.4c0.4-0.7,0.7-1.9,0.7-2.8C27.4,16.6,27.3,15.9,27.1,14.9z"/>
	</g>
</g>
</svg>
