<?xml version="1.0" encoding="utf-8"?>
<!-- Generator: Adobe Illustrator 21.1.0, SVG Export Plug-In . SVG Version: 6.00 Build 0)  -->
<svg version="1.1" baseProfile="basic" id="Calque_1"
	 xmlns="http://www.w3.org/2000/svg" xmlns:xlink="http://www.w3.org/1999/xlink" x="0px" y="0px" viewBox="0 0 38.1 32.6"
	 xml:space="preserve">
<style type="text/css">
	.st0{fill:#FFFFFF;}
</style>
<g>
	
		<image style="overflow:visible;opacity:0.16;" width="246" height="246" xlink:href="AECEFED5.png"  transform="matrix(0.24 0 0 0.24 -13.5149 -12.2579)">
	</image>
	<g>
		<path class="st0" d="M4.5,22.3c0-5.4,0-10.8,0-16.2c0-0.1,0.1-0.1,0.1-0.2c0.4-1.8,1.9-3.1,3.7-3.1c5.1,0,10.2,0,15.3,0
			c2,0,3.7,1.7,3.7,3.7c0,5.1,0,10.2,0,15.4c0,2-1.7,3.7-3.7,3.7c-5.1,0-10.2,0-15.3,0c-1.6,0-3.1-1.1-3.6-2.7
			C4.6,22.7,4.6,22.5,4.5,22.3z M8.8,15.8c0.6,1.6,1.7,2.5,3.5,2.7c-1.6,1.2-3.4,1.7-5.4,1.6c1,0.7,2,1.1,3.1,1.4
			c2.7,0.6,5.2,0.4,7.6-1c3.7-2.1,5.4-5.4,5.5-9.6c0-0.3,0.1-0.5,0.4-0.7c0.6-0.4,1-1,1.4-1.6c-0.6,0.2-1.3,0.4-1.9,0.5
			c0,0,0-0.1,0-0.1c0.7-0.5,1.2-1.1,1.4-1.9c-0.7,0.2-1.4,0.5-2.1,0.7c-0.2,0.1-0.3,0-0.5-0.1c-2-1.9-5.2-1-6.1,1.5
			c-0.2,0.7-0.2,1.4-0.1,2.2c-3.2-0.2-5.7-1.6-7.7-4c-0.9,2-0.5,3.7,1.1,5.1c0,0,0,0-0.1,0.1c-0.5-0.1-1-0.3-1.6-0.4
			c0.1,1.9,1.1,3.1,2.9,3.7c0,0,0,0.1,0,0.1C9.9,15.8,9.4,15.8,8.8,15.8z"/>
	</g>
</g>
</svg>
