<?xml version="1.0" encoding="utf-8"?>
<!-- Generator: Adobe Illustrator 21.1.0, SVG Export Plug-In . SVG Version: 6.00 Build 0)  -->
<svg version="1.1" baseProfile="basic" id="Calque_1"
	 xmlns="http://www.w3.org/2000/svg" xmlns:xlink="http://www.w3.org/1999/xlink" x="0px" y="0px" viewBox="0 0 38.1 32.6"
	 xml:space="preserve">
<style type="text/css">
	.st0{fill:#FFFFFF;}
</style>
<g>
	
		<image style="overflow:visible;opacity:0.16;" width="246" height="246" xlink:href="C08C91CA.png"  transform="matrix(0.24 0 0 0.24 -13.5178 -12.2579)">
	</image>
	<g>
		<path class="st0" d="M4.5,25.6C4.7,25,4.9,24.5,5,24c0.5-1.4,1-2.8,1.4-4.2c0-0.1,0-0.2,0-0.3c-0.6-1-1-2.1-1.3-3.3
			C4.5,13,5.1,10.1,7,7.5c1.4-2,3.4-3.4,5.7-4.2c1.8-0.6,3.5-0.7,5.4-0.4c2.3,0.4,4.3,1.4,5.9,3c1.4,1.4,2.4,3,2.9,4.9
			c1,4,0.1,7.6-2.7,10.7c-1.7,1.8-3.8,2.9-6.2,3.3c-2.4,0.4-4.8,0.1-7-1.1c-0.2-0.1-0.4-0.1-0.7,0c-1.9,0.6-3.8,1.2-5.6,1.8
			C4.7,25.5,4.6,25.5,4.5,25.6z M7.3,22.8c0.1,0,0.1,0,0.1,0c1.1-0.3,2.2-0.7,3.3-1c0.1,0,0.2,0,0.4,0c1,0.6,2.1,1.1,3.3,1.3
			c2,0.4,3.9,0.1,5.7-0.7c1.7-0.8,3.1-2,4.1-3.6c1.2-1.9,1.6-4,1.3-6.2c-0.3-2.4-1.5-4.3-3.3-5.8c-1.5-1.2-3.2-1.9-5.1-2.1
			c-2-0.2-3.9,0.2-5.6,1.2c-1.2,0.7-2.2,1.7-3,2.8C7.6,9.8,7.1,11,6.9,12.3c-0.2,1.3-0.2,2.6,0.2,3.9c0.3,1.1,0.7,2.1,1.4,3
			c0.1,0.1,0.1,0.2,0,0.3c-0.2,0.6-0.4,1.1-0.6,1.7C7.7,21.7,7.5,22.3,7.3,22.8z"/>
		<path class="st0" d="M12.7,8.8C12.7,8.8,12.7,8.8,12.7,8.8c0.5-0.1,0.7,0.2,0.8,0.6c0.2,0.6,0.5,1.2,0.8,1.8
			c0.2,0.3,0.1,0.6-0.1,0.9c-0.2,0.2-0.4,0.5-0.6,0.7c-0.2,0.2-0.2,0.3-0.1,0.6c0.8,1.3,1.8,2.3,3.1,2.9c0.2,0.1,0.5,0.2,0.7,0.3
			c0.3,0.1,0.4,0.1,0.6-0.1c0.3-0.3,0.5-0.6,0.8-1c0.2-0.3,0.4-0.3,0.7-0.2c0.7,0.3,1.5,0.7,2.2,1c0.2,0.1,0.3,0.2,0.2,0.4
			c-0.1,1.1-0.3,1.6-1.6,2.2c-0.6,0.3-1.2,0.3-1.8,0.1c-0.9-0.2-1.7-0.5-2.6-0.9c-0.9-0.4-1.7-1.1-2.4-1.8c-0.9-0.9-1.7-1.9-2.3-3
			c-0.4-0.7-0.6-1.4-0.5-2.2c0.1-0.8,0.5-1.5,1.1-2C12,8.8,12.1,8.8,12.7,8.8z"/>
	</g>
</g>
</svg>
