<?xml version="1.0" encoding="utf-8"?>
<!-- Generator: Adobe Illustrator 21.1.0, SVG Export Plug-In . SVG Version: 6.00 Build 0)  -->
<svg version="1.1" id="Calque_1" xmlns="http://www.w3.org/2000/svg" xmlns:xlink="http://www.w3.org/1999/xlink" x="0px" y="0px"
	 viewBox="0 0 64 64" style="enable-background:new 0 0 64 64;" xml:space="preserve">
<style type="text/css">
	.st0{fill:#1D1D1B;}
</style>
<path class="st0" d="M-12.5,1.6c-0.8-3.2-1.8-5.7-3.3-7.8c-4.8-7.1-11.4-10.6-20-10.7c-2.4,0-17.1,0-19.9,0l-1,0l-0.5-1
	c-0.3-0.6-0.1-1.3,0.4-1.8l0.2-0.2c1.7-1.6,6.7-6.5,8.6-8.3c-0.8-0.8-1.5-1.4-2.1-2c-1-0.9-1.9-1.7-3-2.9c-0.1,0.1-0.3,0.2-0.5,0.4
	c-3.3,3.2-16.9,16.6-20.8,20.4C-71-8.7-59.3,3.8-53.9,9.2l1.9-2c1.2-1.2,2.3-2.3,3.6-3.6c-2.1-2.2-7.5-8.1-8.7-9.3l-0.7-0.7l0.8-1.9
	l1.1-0.1c2.2,0,17.4,0,19.7,0c3.4,0,6.6,0.9,9.3,2.9c3.2,2.3,5.3,5.5,6,9.3c0.6,3.3,0.3,6.3-1,8.9c-1.4,3-3.4,5.3-6.2,6.9
	c-1.7,1-3.6,1.7-6,2c0,2.6,0,5.2,0,7.7l0,1.1c2.4-0.2,4.8-0.9,6-1.3c1.6-0.6,3.7-1.5,5.6-2.7c3.7-2.4,6.4-5.5,8.1-9.3
	c0.9-2,1.8-4.3,2.1-6.5C-11.7,7.3-11.8,4.3-12.5,1.6z"/>
<path class="st0" d="M-33-14.8c-14.2,0-25.8,11.6-25.8,25.8c0,3.2,0.7,6.4,1.8,9.4c-0.1,0.1-0.2,0.3-0.2,0.3l-0.6,0.7
	c-0.4,0.4-0.9,0.5-1.5,0.3l-0.2-0.1c-1.7-0.7-7-2.8-8.9-3.5c-0.3,0.8-0.5,1.5-0.8,2.2c-0.3,1-0.7,1.9-1.1,3.2
	c0.1,0.1,0.2,0.1,0.5,0.2C-66.3,25-52,30.5-48,32.1c1.6-3.7,6.8-16.4,9-22.2L-41,9.1c-1.2-0.5-2.4-0.9-3.8-1.4
	c-0.9,2.2-3.6,8.7-3.9,9.4c-0.3,0.7-1,0.8-1.9,0.8c-0.1,0-0.2,0-0.4,0c-0.9-2.2-1.3-4.6-1.3-7c0-10.7,8.7-19.4,19.4-19.4
	S-13.6,0.3-13.6,11c0,10.7-8.7,19.4-19.4,19.4v6.4c14.2,0,25.8-11.6,25.8-25.8C-7.2-3.2-18.8-14.8-33-14.8z"/>
<g>
	<path class="st0" d="M-39-13.5c-17.4,0-31.5,14.1-31.5,31.5S-56.4,49.5-39,49.5S-7.5,35.4-7.5,18S-21.6-13.5-39-13.5z M-10.9,18
		c0,15.5-12.6,28.1-28.1,28.1S-67.1,33.5-67.1,18c0-15.5,12.6-28.1,28.1-28.1S-10.9,2.5-10.9,18z"/>
	<g>
		<g>
			<path class="st0" d="M-48.8,39.4v-2.7l5.4-1.4V14.4l-6.1-1.4v-2.7c4.6-0.2,15.6,0,15.6,0v25l5.4,1.4v2.7H-48.8z"/>
		</g>
		<g>
			<path class="st0" d="M-39,6.5c-3.3,0-6.2-2.9-6.2-6.2c0-3.3,2.9-6.2,6.2-6.2c3.3,0,6.2,2.9,6.2,6.2C-32.8,3.7-35.7,6.5-39,6.5z"
				/>
		</g>
	</g>
</g>
<g>
	<path class="st0" d="M14.8,62.1c-0.8,0-1.5-0.2-2.1-0.7c-1.1-0.8-1.6-2.1-1.5-3.4l2-16.9c0-0.2,0-0.4-0.2-0.5L1.5,28.2
		c-0.9-1-1.2-2.3-0.8-3.6c0.4-1.3,1.5-2.2,2.8-2.5l16.7-3.3c0.2,0,0.3-0.1,0.4-0.3l8.3-14.8c0.7-1.2,1.8-1.9,3.2-1.9
		c1.3,0,2.5,0.7,3.2,1.9l8.3,14.8c0.1,0.2,0.2,0.3,0.4,0.3l16.7,3.3c1.3,0.3,2.4,1.2,2.8,2.5c0.4,1.3,0.1,2.6-0.8,3.6L51,40.7
		c-0.1,0.1-0.2,0.3-0.2,0.5l2,16.9c0.2,1.3-0.4,2.6-1.5,3.4c-1.1,0.8-2.5,0.9-3.7,0.4l-15.4-7.1c-0.2-0.1-0.4-0.1-0.5,0l-15.4,7.1
		C15.8,62,15.3,62.1,14.8,62.1z M32,4.9c-0.1,0-0.4,0-0.5,0.3l-8.3,14.8c-0.5,0.9-1.4,1.6-2.5,1.8L4,25.1c-0.3,0.1-0.4,0.3-0.5,0.4
		c0,0.1-0.1,0.4,0.1,0.6l11.5,12.4c0.7,0.8,1.1,1.9,1,2.9l-2,16.9c0,0.3,0.1,0.5,0.2,0.6c0.1,0.1,0.3,0.2,0.6,0.1l15.4-7.1
		c1-0.5,2.1-0.5,3.1,0L48.9,59c0.3,0.1,0.5,0,0.6-0.1c0.1-0.1,0.3-0.3,0.2-0.6l-2-16.9c-0.1-1.1,0.2-2.1,1-2.9l11.5-12.4
		c0.2-0.2,0.2-0.5,0.1-0.6c0-0.1-0.2-0.4-0.5-0.4l-16.7-3.3c-1.1-0.2-2-0.9-2.5-1.8L32.5,5.2C32.4,4.9,32.1,4.9,32,4.9z"/>
</g>
</svg>
